<mxfile host="65bd71144e">
    <diagram id="beeDJHBER2gLGEk_ROQv" name="architecture">
        <mxGraphModel dx="2281" dy="895" grid="1" gridSize="10" guides="1" tooltips="1" connect="1" arrows="1" fold="1" page="1" pageScale="1" pageWidth="850" pageHeight="1100" math="0" shadow="0">
            <root>
                <mxCell id="0"/>
                <mxCell id="1" parent="0"/>
                <mxCell id="2" value="" style="whiteSpace=wrap;html=1;rounded=0;sketch=1;fillColor=#e3c800;strokeColor=#B09500;fontColor=#FFFFFF;labelBorderColor=none;labelBackgroundColor=default;fontStyle=0" parent="1" vertex="1">
                    <mxGeometry x="-70" y="55" width="130" height="270" as="geometry"/>
                </mxCell>
                <mxCell id="3" value="Domain" style="text;html=1;align=center;verticalAlign=middle;resizable=0;points=[];autosize=1;strokeColor=#B09500;fillColor=#e3c800;fontColor=#FFFFFF;sketch=1;labelBorderColor=none;labelBackgroundColor=default;fontStyle=0" parent="1" vertex="1">
                    <mxGeometry y="35" width="60" height="20" as="geometry"/>
                </mxCell>
                <mxCell id="4" value="Authentication" style="whiteSpace=wrap;html=1;rounded=1;sketch=1;dashed=1;fontColor=#FFFFFF;labelBorderColor=none;labelBackgroundColor=default;fontStyle=0" parent="1" vertex="1">
                    <mxGeometry x="-52.5" y="195" width="95" height="40" as="geometry"/>
                </mxCell>
                <mxCell id="5" value="" style="whiteSpace=wrap;html=1;rounded=0;sketch=1;fillColor=#6a00ff;strokeColor=#3700CC;fontColor=#FFFFFF;labelBorderColor=none;labelBackgroundColor=default;fontStyle=0" parent="1" vertex="1">
                    <mxGeometry x="-625" y="122" width="515" height="60" as="geometry"/>
                </mxCell>
                <mxCell id="6" value="Infra" style="text;html=1;align=center;verticalAlign=middle;resizable=0;points=[];autosize=1;strokeColor=#001DBC;fillColor=#0050ef;fontColor=#FFFFFF;sketch=1;labelBorderColor=none;labelBackgroundColor=default;fontStyle=0" parent="1" vertex="1">
                    <mxGeometry x="-150" y="102" width="40" height="20" as="geometry"/>
                </mxCell>
                <mxCell id="11" value="" style="whiteSpace=wrap;html=1;rounded=0;sketch=1;fillColor=#d80073;strokeColor=#A50040;fontColor=#FFFFFF;labelBorderColor=none;labelBackgroundColor=default;fontStyle=0" parent="1" vertex="1">
                    <mxGeometry x="-615" y="245" width="505" height="150" as="geometry"/>
                </mxCell>
                <mxCell id="12" value="Data" style="text;html=1;align=center;verticalAlign=middle;resizable=0;points=[];autosize=1;strokeColor=#A50040;fillColor=#d80073;fontColor=#FFFFFF;sketch=1;labelBorderColor=none;labelBackgroundColor=default;fontStyle=0" parent="1" vertex="1">
                    <mxGeometry x="-150" y="225" width="40" height="20" as="geometry"/>
                </mxCell>
                <mxCell id="16" style="edgeStyle=none;sketch=1;html=1;entryX=0;entryY=0.5;entryDx=0;entryDy=0;fontColor=#FFFFFF;labelBorderColor=none;labelBackgroundColor=default;fontStyle=0" parent="1" source="13" target="4" edge="1">
                    <mxGeometry relative="1" as="geometry">
                        <Array as="points">
                            <mxPoint x="-203" y="215"/>
                        </Array>
                    </mxGeometry>
                </mxCell>
                <mxCell id="99" style="edgeStyle=none;sketch=1;html=1;entryX=0.5;entryY=1;entryDx=0;entryDy=0;exitX=0.5;exitY=1;exitDx=0;exitDy=0;" parent="1" source="13" target="38" edge="1">
                    <mxGeometry relative="1" as="geometry">
                        <Array as="points">
                            <mxPoint x="-203" y="315"/>
                            <mxPoint x="-285" y="315"/>
                            <mxPoint x="-285" y="385"/>
                            <mxPoint x="-537" y="385"/>
                        </Array>
                    </mxGeometry>
                </mxCell>
                <mxCell id="13" value="RemoteAuthentication" style="whiteSpace=wrap;html=1;rounded=0;sketch=1;fontColor=#FFFFFF;labelBorderColor=none;labelBackgroundColor=default;fontStyle=0" parent="1" vertex="1">
                    <mxGeometry x="-272.25" y="255" width="138" height="44" as="geometry"/>
                </mxCell>
                <mxCell id="18" value="" style="whiteSpace=wrap;html=1;rounded=0;sketch=1;fillColor=#a20025;strokeColor=#6F0000;fontColor=#FFFFFF;labelBorderColor=none;labelBackgroundColor=default;fontStyle=0" parent="1" vertex="1">
                    <mxGeometry x="-830" y="105" width="160" height="280" as="geometry"/>
                </mxCell>
                <mxCell id="19" value="Main" style="text;html=1;align=center;verticalAlign=middle;resizable=0;points=[];autosize=1;strokeColor=#6F0000;fillColor=#a20025;fontColor=#FFFFFF;sketch=1;labelBorderColor=none;labelBackgroundColor=default;fontStyle=0" parent="1" vertex="1">
                    <mxGeometry x="-710" y="85" width="40" height="20" as="geometry"/>
                </mxCell>
                <mxCell id="20" value="" style="whiteSpace=wrap;html=1;rounded=0;sketch=1;fillColor=#60a917;strokeColor=#2D7600;fontColor=#FFFFFF;labelBorderColor=none;labelBackgroundColor=default;fontStyle=0" parent="1" vertex="1">
                    <mxGeometry x="-280" y="425" width="340" height="230" as="geometry"/>
                </mxCell>
                <mxCell id="21" value="Presentation" style="text;html=1;align=center;verticalAlign=middle;resizable=0;points=[];autosize=1;strokeColor=#2D7600;fillColor=#60a917;fontColor=#FFFFFF;sketch=1;labelBorderColor=none;labelBackgroundColor=default;fontStyle=0" parent="1" vertex="1">
                    <mxGeometry x="-20" y="405" width="80" height="20" as="geometry"/>
                </mxCell>
                <mxCell id="24" value="Validation" style="whiteSpace=wrap;html=1;rounded=1;sketch=1;dashed=1;fontColor=#FFFFFF;labelBorderColor=none;labelBackgroundColor=default;fontStyle=0" parent="1" vertex="1">
                    <mxGeometry x="-250.75" y="471" width="95" height="40" as="geometry"/>
                </mxCell>
                <mxCell id="25" value="" style="whiteSpace=wrap;html=1;rounded=0;sketch=1;fillColor=#1ba1e2;strokeColor=#006EAF;fontColor=#FFFFFF;labelBorderColor=none;labelBackgroundColor=default;fontStyle=0" parent="1" vertex="1">
                    <mxGeometry x="-685" y="425" width="350" height="200" as="geometry"/>
                </mxCell>
                <mxCell id="26" value="Validation" style="text;html=1;align=center;verticalAlign=middle;resizable=0;points=[];autosize=1;strokeColor=#006EAF;fillColor=#1ba1e2;fontColor=#FFFFFF;sketch=1;labelBorderColor=none;labelBackgroundColor=default;fontStyle=0" parent="1" vertex="1">
                    <mxGeometry x="-405" y="405" width="70" height="20" as="geometry"/>
                </mxCell>
                <mxCell id="34" value="App" style="whiteSpace=wrap;html=1;rounded=0;sketch=1;fontColor=#FFFFFF;labelBorderColor=none;labelBackgroundColor=default;fontStyle=0" parent="1" vertex="1">
                    <mxGeometry x="-819" y="153" width="138" height="44" as="geometry"/>
                </mxCell>
                <mxCell id="35" value="Signup" style="whiteSpace=wrap;html=1;rounded=1;sketch=1;dashed=1;fontColor=#FFFFFF;labelBorderColor=none;labelBackgroundColor=default;fontStyle=0" parent="1" vertex="1">
                    <mxGeometry x="-52.5" y="245" width="95" height="40" as="geometry"/>
                </mxCell>
                <mxCell id="51" style="edgeStyle=none;html=1;entryX=0;entryY=0.5;entryDx=0;entryDy=0;fontStyle=0;sketch=1;labelBackgroundColor=default;" parent="1" source="36" target="35" edge="1">
                    <mxGeometry relative="1" as="geometry">
                        <Array as="points">
                            <mxPoint x="-95" y="347"/>
                            <mxPoint x="-95" y="265"/>
                        </Array>
                    </mxGeometry>
                </mxCell>
                <mxCell id="98" style="edgeStyle=none;html=1;entryX=0.5;entryY=1;entryDx=0;entryDy=0;sketch=1;exitX=0.5;exitY=1;exitDx=0;exitDy=0;" parent="1" source="36" target="38" edge="1">
                    <mxGeometry relative="1" as="geometry">
                        <Array as="points">
                            <mxPoint x="-203" y="385"/>
                            <mxPoint x="-295" y="385"/>
                            <mxPoint x="-537" y="385"/>
                        </Array>
                    </mxGeometry>
                </mxCell>
                <mxCell id="36" value="RemoteSignup" style="whiteSpace=wrap;html=1;rounded=0;sketch=1;fontColor=#FFFFFF;labelBorderColor=none;labelBackgroundColor=default;fontStyle=0" parent="1" vertex="1">
                    <mxGeometry x="-272.25" y="325" width="138" height="44" as="geometry"/>
                </mxCell>
                <mxCell id="42" style="edgeStyle=none;sketch=1;html=1;entryX=0.5;entryY=1;entryDx=0;entryDy=0;fontStyle=0;labelBackgroundColor=default;" parent="1" source="37" target="41" edge="1">
                    <mxGeometry relative="1" as="geometry"/>
                </mxCell>
                <mxCell id="101" style="edgeStyle=none;sketch=1;html=1;entryX=0;entryY=0.5;entryDx=0;entryDy=0;fillColor=#fff2cc;strokeColor=#d6b656;" parent="1" source="37" target="38" edge="1">
                    <mxGeometry relative="1" as="geometry">
                        <Array as="points">
                            <mxPoint x="-280" y="195"/>
                            <mxPoint x="-605" y="195"/>
                            <mxPoint x="-605" y="345"/>
                        </Array>
                    </mxGeometry>
                </mxCell>
                <mxCell id="37" value="AwsCognitoIdentityProvider" style="whiteSpace=wrap;html=1;rounded=0;sketch=1;fontColor=#FFFFFF;labelBorderColor=none;labelBackgroundColor=default;fontStyle=0" parent="1" vertex="1">
                    <mxGeometry x="-349" y="130" width="138" height="42" as="geometry"/>
                </mxCell>
                <mxCell id="38" value="IdentityProvider" style="whiteSpace=wrap;html=1;rounded=1;sketch=1;dashed=1;fontColor=#FFFFFF;labelBorderColor=none;labelBackgroundColor=default;fontStyle=0" parent="1" vertex="1">
                    <mxGeometry x="-585" y="325" width="95" height="40" as="geometry"/>
                </mxCell>
                <mxCell id="41" value="AWSCognito" style="whiteSpace=wrap;html=1;rounded=0;sketch=1;fillColor=#647687;strokeColor=#314354;fontColor=#FFFFFF;labelBorderColor=none;shadow=0;labelBackgroundColor=default;fontStyle=0" parent="1" vertex="1">
                    <mxGeometry x="-318" y="30" width="76" height="44" as="geometry"/>
                </mxCell>
                <mxCell id="53" value="FieldValidation" style="whiteSpace=wrap;html=1;rounded=1;sketch=1;dashed=1;fontColor=#FFFFFF;labelBorderColor=none;labelBackgroundColor=default;fontStyle=0" parent="1" vertex="1">
                    <mxGeometry x="-478.5" y="471" width="95" height="40" as="geometry"/>
                </mxCell>
                <mxCell id="56" value="" style="group;fontStyle=0;sketch=1;labelBackgroundColor=default;" parent="1" vertex="1" connectable="0">
                    <mxGeometry x="-670" y="460" width="148" height="54" as="geometry"/>
                </mxCell>
                <mxCell id="27" value="EmailValidator" style="whiteSpace=wrap;html=1;rounded=0;sketch=1;fontColor=#FFFFFF;labelBorderColor=none;labelBackgroundColor=default;fontStyle=0" parent="56" vertex="1">
                    <mxGeometry width="138" height="44" as="geometry"/>
                </mxCell>
                <mxCell id="54" value="Validators" style="whiteSpace=wrap;html=1;rounded=0;sketch=1;fontColor=#FFFFFF;labelBorderColor=none;labelBackgroundColor=default;fontStyle=0" parent="56" vertex="1">
                    <mxGeometry x="10" y="9" width="138" height="44" as="geometry"/>
                </mxCell>
                <mxCell id="58" style="edgeStyle=none;html=1;entryX=0;entryY=0.5;entryDx=0;entryDy=0;sketch=1;labelBackgroundColor=default;" parent="1" source="54" target="53" edge="1">
                    <mxGeometry relative="1" as="geometry"/>
                </mxCell>
                <mxCell id="60" style="edgeStyle=none;html=1;entryX=0.5;entryY=1;entryDx=0;entryDy=0;sketch=1;labelBackgroundColor=default;" parent="1" source="59" target="54" edge="1">
                    <mxGeometry relative="1" as="geometry"/>
                </mxCell>
                <mxCell id="59" value="BuilderValidator" style="whiteSpace=wrap;html=1;rounded=0;sketch=1;fontColor=#FFFFFF;labelBorderColor=none;labelBackgroundColor=default;fontStyle=0" parent="1" vertex="1">
                    <mxGeometry x="-660" y="555" width="138" height="44" as="geometry"/>
                </mxCell>
                <mxCell id="70" style="edgeStyle=none;sketch=1;html=1;entryX=0;entryY=0.5;entryDx=0;entryDy=0;labelBackgroundColor=default;" parent="1" source="62" target="24" edge="1">
                    <mxGeometry relative="1" as="geometry">
                        <Array as="points">
                            <mxPoint x="-295" y="577"/>
                            <mxPoint x="-295" y="491"/>
                        </Array>
                    </mxGeometry>
                </mxCell>
                <mxCell id="74" style="edgeStyle=none;sketch=1;html=1;entryX=0.5;entryY=1;entryDx=0;entryDy=0;labelBackgroundColor=default;" parent="1" source="62" target="53" edge="1">
                    <mxGeometry relative="1" as="geometry"/>
                </mxCell>
                <mxCell id="62" value="CompositeValidator" style="whiteSpace=wrap;html=1;rounded=0;sketch=1;fontColor=#FFFFFF;labelBorderColor=none;labelBackgroundColor=default;fontStyle=0" parent="1" vertex="1">
                    <mxGeometry x="-500" y="555" width="138" height="44" as="geometry"/>
                </mxCell>
                <mxCell id="65" value="" style="group;labelBackgroundColor=default;sketch=1;" parent="1" vertex="1" connectable="0">
                    <mxGeometry x="-115" y="455" width="148" height="54" as="geometry"/>
                </mxCell>
                <mxCell id="44" value="Signup" style="whiteSpace=wrap;html=1;rounded=0;sketch=1;fontColor=#FFFFFF;labelBorderColor=none;labelBackgroundColor=default;fontStyle=0" parent="65" vertex="1">
                    <mxGeometry x="10" width="138" height="44" as="geometry"/>
                </mxCell>
                <mxCell id="64" value="Views" style="whiteSpace=wrap;html=1;rounded=0;sketch=1;fontColor=#FFFFFF;labelBorderColor=none;labelBackgroundColor=default;fontStyle=0" parent="65" vertex="1">
                    <mxGeometry y="10" width="138" height="44" as="geometry"/>
                </mxCell>
                <mxCell id="66" value="" style="group;labelBackgroundColor=default;sketch=1;" parent="1" vertex="1" connectable="0">
                    <mxGeometry x="-115" y="555" width="148" height="54" as="geometry"/>
                </mxCell>
                <mxCell id="67" value="Signup" style="whiteSpace=wrap;html=1;rounded=0;sketch=1;fontColor=#FFFFFF;labelBorderColor=none;labelBackgroundColor=default;fontStyle=0" parent="66" vertex="1">
                    <mxGeometry x="10" width="138" height="44" as="geometry"/>
                </mxCell>
                <mxCell id="68" value="ViewModelsImpl" style="whiteSpace=wrap;html=1;rounded=0;sketch=1;fontColor=#FFFFFF;labelBorderColor=none;labelBackgroundColor=default;fontStyle=0" parent="66" vertex="1">
                    <mxGeometry y="10" width="138" height="44" as="geometry"/>
                </mxCell>
                <mxCell id="71" style="edgeStyle=none;sketch=1;html=1;entryX=1;entryY=0.5;entryDx=0;entryDy=0;labelBackgroundColor=default;" parent="1" source="68" target="24" edge="1">
                    <mxGeometry relative="1" as="geometry">
                        <Array as="points">
                            <mxPoint x="-135" y="587"/>
                            <mxPoint x="-135" y="491"/>
                        </Array>
                    </mxGeometry>
                </mxCell>
                <mxCell id="73" style="edgeStyle=none;sketch=1;html=1;entryX=0.5;entryY=1;entryDx=0;entryDy=0;labelBackgroundColor=default;" parent="1" source="68" target="2" edge="1">
                    <mxGeometry relative="1" as="geometry">
                        <mxPoint x="5.000000000000227" y="375" as="targetPoint"/>
                        <Array as="points">
                            <mxPoint x="85" y="587"/>
                            <mxPoint x="85" y="355"/>
                            <mxPoint x="-5" y="355"/>
                        </Array>
                    </mxGeometry>
                </mxCell>
                <mxCell id="75" style="edgeStyle=none;html=1;entryX=0.5;entryY=0;entryDx=0;entryDy=0;sketch=1;strokeColor=#d6b656;rounded=1;fillColor=#fff2cc;" parent="1" source="64" target="76" edge="1">
                    <mxGeometry relative="1" as="geometry">
                        <Array as="points">
                            <mxPoint x="-46" y="535"/>
                            <mxPoint x="-203" y="535"/>
                        </Array>
                    </mxGeometry>
                </mxCell>
                <mxCell id="76" value="ViewModel" style="whiteSpace=wrap;html=1;rounded=1;sketch=1;dashed=1;fontColor=#FFFFFF;labelBorderColor=none;labelBackgroundColor=default;fontStyle=0" parent="1" vertex="1">
                    <mxGeometry x="-250.75" y="567" width="95" height="40" as="geometry"/>
                </mxCell>
                <mxCell id="78" style="edgeStyle=none;sketch=1;html=1;entryX=1;entryY=0.5;entryDx=0;entryDy=0;" parent="1" source="68" target="76" edge="1">
                    <mxGeometry relative="1" as="geometry"/>
                </mxCell>
                <mxCell id="79" value="Axios" style="whiteSpace=wrap;html=1;rounded=0;sketch=1;fillColor=#647687;strokeColor=#314354;fontColor=#FFFFFF;labelBorderColor=none;shadow=0;labelBackgroundColor=default;fontStyle=0" parent="1" vertex="1">
                    <mxGeometry x="-500" y="30" width="76" height="44" as="geometry"/>
                </mxCell>
                <mxCell id="91" style="edgeStyle=none;html=1;entryX=0.5;entryY=1;entryDx=0;entryDy=0;sketch=1;" parent="1" source="80" target="79" edge="1">
                    <mxGeometry relative="1" as="geometry"/>
                </mxCell>
                <mxCell id="92" style="edgeStyle=none;sketch=1;html=1;entryX=0.5;entryY=0;entryDx=0;entryDy=0;" parent="1" source="80" target="82" edge="1">
                    <mxGeometry relative="1" as="geometry">
                        <Array as="points">
                            <mxPoint x="-462" y="225"/>
                            <mxPoint x="-537" y="225"/>
                        </Array>
                    </mxGeometry>
                </mxCell>
                <mxCell id="80" value="AxiosHttpClient" style="whiteSpace=wrap;html=1;rounded=0;sketch=1;fontColor=#FFFFFF;labelBorderColor=none;labelBackgroundColor=default;fontStyle=0" parent="1" vertex="1">
                    <mxGeometry x="-531" y="130" width="138" height="42" as="geometry"/>
                </mxCell>
                <mxCell id="87" style="edgeStyle=none;html=1;entryX=1;entryY=0.5;entryDx=0;entryDy=0;sketch=1;" parent="1" target="82" edge="1">
                    <mxGeometry relative="1" as="geometry">
                        <mxPoint x="-445" y="275" as="sourcePoint"/>
                    </mxGeometry>
                </mxCell>
                <mxCell id="90" style="edgeStyle=none;html=1;entryX=0;entryY=0.5;entryDx=0;entryDy=0;sketch=1;" parent="1" source="81" target="88" edge="1">
                    <mxGeometry relative="1" as="geometry">
                        <Array as="points">
                            <mxPoint x="-376" y="205"/>
                            <mxPoint x="-95" y="205"/>
                            <mxPoint x="-95" y="164"/>
                        </Array>
                    </mxGeometry>
                </mxCell>
                <mxCell id="81" value="RemoteGetCategories" style="whiteSpace=wrap;html=1;rounded=0;sketch=1;fontColor=#FFFFFF;labelBorderColor=none;labelBackgroundColor=default;fontStyle=0" parent="1" vertex="1">
                    <mxGeometry x="-445" y="255" width="138" height="44" as="geometry"/>
                </mxCell>
                <mxCell id="82" value="HttpClient" style="whiteSpace=wrap;html=1;rounded=1;sketch=1;dashed=1;fontColor=#FFFFFF;labelBorderColor=none;labelBackgroundColor=default;fontStyle=0" parent="1" vertex="1">
                    <mxGeometry x="-585" y="255" width="95" height="40" as="geometry"/>
                </mxCell>
                <mxCell id="88" value="GetCategories" style="whiteSpace=wrap;html=1;rounded=1;sketch=1;dashed=1;fontColor=#FFFFFF;labelBorderColor=none;labelBackgroundColor=default;fontStyle=0" parent="1" vertex="1">
                    <mxGeometry x="-52.5" y="145" width="95" height="40" as="geometry"/>
                </mxCell>
                <mxCell id="94" value="Factories" style="whiteSpace=wrap;html=1;rounded=0;sketch=1;fontColor=#FFFFFF;labelBorderColor=none;labelBackgroundColor=default;fontStyle=0" parent="1" vertex="1">
                    <mxGeometry x="-819" y="223" width="138" height="44" as="geometry"/>
                </mxCell>
                <mxCell id="95" value="Routes" style="whiteSpace=wrap;html=1;rounded=0;sketch=1;fontColor=#FFFFFF;labelBorderColor=none;labelBackgroundColor=default;fontStyle=0" parent="1" vertex="1">
                    <mxGeometry x="-819" y="293" width="138" height="44" as="geometry"/>
                </mxCell>
                <mxCell id="96" value="GetArticles" style="whiteSpace=wrap;html=1;rounded=1;sketch=1;dashed=1;fontColor=#FFFFFF;labelBorderColor=none;labelBackgroundColor=default;fontStyle=0" parent="1" vertex="1">
                    <mxGeometry x="-52.5" y="94" width="95" height="40" as="geometry"/>
                </mxCell>
                <mxCell id="100" style="edgeStyle=none;sketch=1;html=1;entryX=1;entryY=0.5;entryDx=0;entryDy=0;" parent="1" source="97" target="82" edge="1">
                    <mxGeometry relative="1" as="geometry">
                        <Array as="points">
                            <mxPoint x="-465" y="345"/>
                            <mxPoint x="-465" y="275"/>
                        </Array>
                    </mxGeometry>
                </mxCell>
                <mxCell id="102" style="edgeStyle=none;html=1;entryX=0;entryY=0.5;entryDx=0;entryDy=0;sketch=1;exitX=0.5;exitY=0;exitDx=0;exitDy=0;fillColor=#fff2cc;strokeColor=#d6b656;" edge="1" parent="1" source="97" target="96">
                    <mxGeometry relative="1" as="geometry">
                        <Array as="points">
                            <mxPoint x="-376" y="305"/>
                            <mxPoint x="-285" y="305"/>
                            <mxPoint x="-285" y="225"/>
                            <mxPoint x="-235" y="225"/>
                            <mxPoint x="-235" y="195"/>
                            <mxPoint x="-85" y="195"/>
                            <mxPoint x="-85" y="114"/>
                        </Array>
                    </mxGeometry>
                </mxCell>
                <mxCell id="97" value="RemoteGetArticles" style="whiteSpace=wrap;html=1;rounded=0;sketch=1;fontColor=#FFFFFF;labelBorderColor=none;labelBackgroundColor=default;fontStyle=0" parent="1" vertex="1">
                    <mxGeometry x="-445" y="323" width="138" height="44" as="geometry"/>
                </mxCell>
                <mxCell id="127" value="" style="group" vertex="1" connectable="0" parent="1">
                    <mxGeometry x="-230" y="770" width="220" height="180" as="geometry"/>
                </mxCell>
                <mxCell id="103" value="" style="whiteSpace=wrap;html=1;rounded=0;sketch=0;labelBorderColor=none;labelBackgroundColor=default;fontStyle=0;fillColor=#76608a;strokeColor=#432D57;glass=0;shadow=0;fontColor=#ffffff;" vertex="1" parent="127">
                    <mxGeometry y="20" width="220" height="160" as="geometry"/>
                </mxCell>
                <mxCell id="104" value="&lt;font style=&quot;font-size: 10px&quot;&gt;Legend&lt;/font&gt;" style="text;html=1;align=center;verticalAlign=middle;resizable=0;points=[];autosize=1;strokeColor=#432D57;fillColor=#76608a;sketch=0;labelBorderColor=none;labelBackgroundColor=none;fontStyle=0;glass=0;rounded=0;shadow=0;fontColor=#ffffff;" vertex="1" parent="127">
                    <mxGeometry x="170" width="50" height="20" as="geometry"/>
                </mxCell>
                <mxCell id="105" value="&lt;font style=&quot;font-size: 8px&quot;&gt;Interface&lt;/font&gt;" style="whiteSpace=wrap;html=1;rounded=1;sketch=1;dashed=1;fontColor=#FFFFFF;labelBorderColor=none;labelBackgroundColor=none;fontStyle=0;fillColor=none;" vertex="1" parent="127">
                    <mxGeometry x="18" y="33" width="70" height="26" as="geometry"/>
                </mxCell>
                <mxCell id="106" value="&lt;font style=&quot;font-size: 8px&quot;&gt;Class&lt;/font&gt;" style="whiteSpace=wrap;html=1;rounded=0;sketch=1;fontColor=#FFFFFF;labelBorderColor=none;labelBackgroundColor=none;fontStyle=0;fillColor=none;" vertex="1" parent="127">
                    <mxGeometry x="13" y="74" width="80" height="32" as="geometry"/>
                </mxCell>
                <mxCell id="118" value="" style="group" vertex="1" connectable="0" parent="127">
                    <mxGeometry x="129.63160648678482" y="58.999999999999886" width="56.468393513215176" height="1.0000000000001137" as="geometry"/>
                </mxCell>
                <mxCell id="116" value="" style="group" vertex="1" connectable="0" parent="118">
                    <mxGeometry x="6.768393513215187" y="1.0000000000001137" width="49.7" as="geometry"/>
                </mxCell>
                <mxCell id="110" value="" style="endArrow=classic;html=1;sketch=1;" edge="1" parent="116">
                    <mxGeometry width="50" height="50" relative="1" as="geometry">
                        <mxPoint x="8.286401007332723" as="sourcePoint"/>
                        <mxPoint x="49.7" as="targetPoint"/>
                    </mxGeometry>
                </mxCell>
                <mxCell id="114" value="depends" style="edgeLabel;html=1;align=center;verticalAlign=middle;resizable=0;points=[];labelBackgroundColor=none;fontSize=6;" vertex="1" connectable="0" parent="110">
                    <mxGeometry x="0.3438" y="-1" relative="1" as="geometry">
                        <mxPoint x="24" y="-1" as="offset"/>
                    </mxGeometry>
                </mxCell>
                <mxCell id="117" value="something" style="edgeLabel;html=1;align=center;verticalAlign=middle;resizable=0;points=[];labelBackgroundColor=none;fontSize=6;" vertex="1" connectable="0" parent="118">
                    <mxGeometry x="70" y="9" as="geometry">
                        <mxPoint x="-70" y="-9" as="offset"/>
                    </mxGeometry>
                </mxCell>
                <mxCell id="119" value="&lt;font style=&quot;font-size: 8px&quot;&gt;Layer&lt;/font&gt;" style="whiteSpace=wrap;html=1;rounded=0;sketch=1;fillColor=#f5f5f5;strokeColor=#FFFFFF;fontColor=#FFFFFF;labelBorderColor=none;labelBackgroundColor=none;fontStyle=0" vertex="1" parent="127">
                    <mxGeometry x="120.37" y="102" width="75" height="40" as="geometry"/>
                </mxCell>
                <mxCell id="120" value="&lt;font style=&quot;font-size: 8px&quot;&gt;name&lt;/font&gt;" style="text;html=1;align=center;verticalAlign=middle;resizable=0;points=[];autosize=1;strokeColor=#FFFFFF;fillColor=#f5f5f5;fontColor=#FFFFFF;sketch=1;labelBorderColor=none;labelBackgroundColor=none;fontStyle=0" vertex="1" parent="127">
                    <mxGeometry x="155.37" y="82" width="40" height="20" as="geometry"/>
                </mxCell>
                <mxCell id="126" value="" style="group" vertex="1" connectable="0" parent="127">
                    <mxGeometry x="10" y="124" width="85.74" height="42" as="geometry"/>
                </mxCell>
                <mxCell id="124" value="&lt;font style=&quot;font-size: 8px&quot;&gt;Class&lt;/font&gt;" style="whiteSpace=wrap;html=1;rounded=0;sketch=1;fontColor=#FFFFFF;labelBorderColor=none;labelBackgroundColor=none;fontStyle=0;fillColor=none;" vertex="1" parent="126">
                    <mxGeometry x="5.739999999999995" width="80" height="32" as="geometry"/>
                </mxCell>
                <mxCell id="125" value="&lt;font style=&quot;font-size: 8px&quot;&gt;Class collection&lt;/font&gt;" style="whiteSpace=wrap;html=1;rounded=0;sketch=0;fontColor=#ffffff;labelBorderColor=none;labelBackgroundColor=none;fontStyle=0;fillColor=#76608a;strokeColor=#FFFFFF;comic=0;" vertex="1" parent="126">
                    <mxGeometry y="10" width="80" height="32" as="geometry"/>
                </mxCell>
            </root>
        </mxGraphModel>
    </diagram>
</mxfile>